<svg xmlns="http://www.w3.org/2000/svg" xmlns:xlink="http://www.w3.org/1999/xlink" xmlns:svgjs="http://svgjs.com/svgjs" id="SvgjsSvg1014" version="1.1" viewBox="3.14 86.9 280.29 115.76"><defs id="SvgjsDefs1015"/><g id="SvgjsG1016"><svg xmlns="http://www.w3.org/2000/svg" version="1.0" viewBox="0 0 2577 1124" width="288" height="288"><g transform="matrix(.1 0 0 -.1 0 1124)"><path d="M1970 10719c-413-47-760-199-1001-439-234-232-349-511-349-846 0-456 212-767 782-1151 182-123 271-174 571-330 590-307 868-494 991-667 90-126 126-230 126-363 0-152-44-257-155-369-154-156-410-244-710-244-641 0-1012 334-1121 1009-16 101-29 134-64 166-21 19-36 20-226 20l-204 0-31-32c-20-19-34-46-38-68-9-56 25-1176 37-1205 16-40 51-66 142-105 664-287 1493-387 2094-254 144 32 317 93 446 159 350 179 579 436 694 780 49 148 67 260 67 425 0 366-119 634-410 925-253 252-460 385-1214 779-358 187-438 233-577 329-211 148-306 279-317 439-17 250 138 431 442 515 71 20 105 22 295 22 191 1 225-2 304-22 98-25 225-80 304-134 213-143 362-392 418-698 31-171 54-185 289-185 196 0 220 8 256 82 20 41 20 52 13 525-8 586 7 531-163 611-395 188-740 290-1101 327-114 12-485 11-590-1zm480-129c372-21 684-107 1126-307l101-46 6-240c4-132 7-341 7-464l0-224-137 3-138 3-17 85c-39 189-112 373-200 503-53 79-185 211-263 264-186 126-369 180-636 190-234 8-398-19-557-92-150-70-252-161-314-283-50-95-63-152-63-267 1-337 202-534 924-905 296-152 566-300 776-428 645-390 906-852 799-1414-29-153-117-351-213-479-153-202-414-379-693-468-241-77-491-107-817-98-375 10-730 73-1090 193-139 47-318 119-336 135-12 12-47 1110-36 1122 4 4 68 6 141 5l134-3 7-35c3-19 14-78 24-130 39-214 140-455 255-609 160-215 393-351 696-407 133-25 420-25 548 0 294 57 512 180 636 360 126 184 144 451 45 663-45 97-85 154-169 242-169 175-422 337-991 634-292 152-392 210-564 330-384 267-571 478-647 732-36 121-45 344-19 479 60 322 241 567 548 744 207 118 461 191 742 211 171 12 190 12 385 1zM14989 10576c-283-84-525-158-536-164-11-7-33-25-47-43-25-29-26-36-26-143 0-164-14-151 318-286l202-82 0-394c0-217-1-394-2-394-2 0-50 16-107 35-177 60-301 79-501 79-293 0-531-54-771-175-378-189-705-572-854-999-219-630-119-1298 265-1765 113-136 232-230 405-315 208-103 416-147 645-137 314 14 559 108 831 318 42 33 79 59 82 59 4 0 7-63 7-140 0-107 4-148 15-170 16-31 80-70 113-70 19 0 1075 193 1125 205 36 9 85 67 93 110 3 19 5 84 2 144-4 125-16 152-82 185-34 17-45 17-106 7-137-22-247-10-275 32-39 61-39 40-45 2120l-5 2008-66 65c-64 61-69 64-115 63-32 0-227-53-565-153zm621-2010c0-1701 2-1981 15-2041 28-130 75-190 169-216 46-13 234-16 284-5l33 8-3-94-3-93-525-97c-289-53-531-97-537-98-10 0-13 63-13 281l0 281-96-92c-368-351-675-485-1074-468-185 9-388 67-535 155-299 180-520 514-605 918-30 142-38 428-16 584 56 397 207 709 481 999 195 206 430 344 698 412 368 92 738 55 1060-106l87-44-2 552-3 553-245 100c-135 55-251 104-257 108-8 5-13 31-13 67l0 59 71 22c38 12 271 81 517 154l447 132 33-30 32-31 0-1970z" fill="#a7441c" class="color000 svgShape"/><path d="M14082 8829c-235-22-460-160-597-365-86-129-158-317-191-499-28-155-26-519 4-678 58-306 175-535 363-710 96-91 165-132 288-173 354-119 719-24 1001 259l80 80 0 642c0 712-2 742-64 905-42 114-86 186-163 270-61 66-170 148-248 187-68 35-191 72-257 78-35 3-79 7-98 9-19 2-72-1-118-5zm255-150c113-24 251-101 346-193 91-88 158-216 193-367 14-64 17-155 21-695l5-620-62-58c-179-165-344-240-555-253-240-14-452 77-601 259-82 100-98 125-143 215-85 172-120 337-128 604-10 320 28 517 138 729 157 301 460 448 786 379zM10570 9179c-451-44-817-206-1011-447-111-138-161-280-160-457 1-233 122-490 256-540 40-16 47-16 118 4 100 27 316 114 396 158 35 20 81 51 103 71 90 82 90 139-2 317-34 66-66 133-71 149-27 92 82 201 241 242 96 25 276 23 360-4 115-37 186-96 239-197 33-65 41-134 41-374l0-227-352-109c-679-209-926-316-1127-487-148-125-243-267-286-423-26-94-31-284-11-384 37-183 92-286 216-411 120-121 247-192 412-234 278-69 555-33 843 111 89 45 257 149 326 204 20 16 39 29 42 29 3 0 8-12 12-27 3-16 22-56 42-91 166-300 565-347 906-107 76 53 216 182 278 256 57 68 59 98 16 242-41 136-53 158-100 181-51 24-76 20-169-24-46-22-100-43-120-46-31-5-38-3-50 17-10 19-14 196-18 929-6 1008-5 986-76 1159-47 112-96 182-193 273-127 120-298 194-539 234-117 19-429 26-562 13zm468-140c439-47 684-246 747-604 13-74 15-222 15-934 0-917 2-942 54-1022 37-56 97-75 178-59 35 6 94 27 132 46 38 19 70 33 71 32 5-5 55-174 55-185 0-18-165-179-243-237-148-111-260-150-406-144-76 3-107 9-152 30-133 61-207 173-248 375l-17 83-90-76c-351-296-668-428-988-411-299 15-538 159-652 394-45 93-64 183-64 313 0 188 52 320 178 452 216 226 411 313 1340 599l272 83 0 276c0 151-5 304-10 340-23 145-133 302-260 369-156 83-437 98-604 32-200-80-294-193-284-344 4-63 22-108 103-257 45-83 43-105-16-145-58-39-225-113-353-156l-97-32-29 28c-16 15-45 60-64 99-123 252-90 502 95 700 172 184 442 300 814 351 114 16 397 18 523 4z" fill="#a7441c" class="color000 svgShape"/><path d="M11045 7520c-88-37-248-105-355-150-334-141-445-204-542-307-62-67-96-137-110-227-34-217 104-414 336-481 46-14 85-16 180-13 104 5 134 10 211 38 137 49 258 122 386 231l69 60 0 459c0 253-3 460-7 459-5 0-80-31-168-69zm35-464l0-324-47-40c-165-137-342-213-503-214-94 0-130 7-192 38-100 51-158 136-166 247-4 60-2 73 27 131 35 71 99 130 212 197 66 38 632 285 662 288 4 1 7-145 7-323zM4306 9110c-76-23-96-72-96-231 0-174 24-212 149-238 112-24 151-65 227-240 20-46 260-640 534-1320 415-1031 503-1242 532-1273l35-38 147 0 146 0 35 33c29 27 85 155 386 885 194 468 356 849 360 845 4-5 158-388 343-853 299-754 339-848 370-877l36-33 132 0c147 0 183 11 211 67 8 15 227 579 487 1253 260 674 493 1266 517 1315 57 114 112 187 156 208 19 10 70 24 113 32 129 25 154 63 154 237-1 145-18 189-84 219-44 19-65 20-603 17l-558-3-31-22c-52-37-64-76-64-207 0-189 23-220 182-243 111-16 149-32 182-76 18-24 21-42 21-115-1-115-8-136-247-746-110-281-209-535-220-564-11-30-24-50-28-45-15 14-456 1141-501 1278-23 72-43 150-43 175-1 42 2 46 34 62 20 10 84 22 150 28 195 20 210 38 210 247l0 142-31 36c-17 19-47 40-67 45-25 8-277 10-787 8l-750-3-31-22c-52-37-64-76-64-207 0-190 21-217 190-247 133-23 177-44 213-98 26-39 94-192 136-307l23-62-237-568c-130-313-240-572-244-577-7-7-526 1287-563 1406-24 80-24 151 2 177 22 22 35 26 139 39 124 16 151 58 151 236 0 133-11 170-61 206l-34 24-665 2c-366 1-678-2-694-7zm1314-229l0-98-70-7c-156-14-240-98-240-239 0-24 11-82 24-128 20-68 678-1745 690-1756 1-2 145 339 319 757l316 759-58 154c-132 350-194 415-425 449l-86 12 0 98 0 98 730 0 731 0-3-97-3-98-105-11c-183-19-265-61-290-149-16-58-5-130 47-290 34-106 619-1602 633-1618 3-4 84 192 180 435 460 1178 435 1109 450 1242 16 137-20 255-95 312-46 35-136 64-217 71l-68 6 0 98 0 99 530 0 530 0 0-99 0-98-48-6c-156-18-253-101-350-297-35-72-261-642-528-1335-256-665-470-1218-475-1227-8-15-24-18-94-18l-84 0-259 653c-143 358-321 808-397 1000-76 191-141 347-145 347-3 0-192-450-420-1000l-414-1000-91 0-90 0-509 1263c-280 694-530 1307-557 1363-27 55-65 119-84 141-38 45-108 83-192 104l-53 13 0 98 0 98 635 0 635 0 0-99zM2695 4973c-291-20-660-100-900-195-200-79-441-210-595-322-521-381-844-947-911-1595-16-160-6-532 20-676 64-365 190-651 404-917 312-388 763-655 1342-796 261-64 473-91 785-99 580-15 1109 76 1795 310l100 34 5 704c5 691 6 705 27 768 70 206 241 300 551 301l82 0 0 100 0 100-1070 0-1070 0 0-100 0-100 123 0c404-1 589-97 654-341 15-56 17-138 20-666l4-601-70-42c-80-48-270-126-381-158-293-83-686-108-975-62-184 29-391 98-545 182-670 364-1035 1095-1007 2013 17 530 161 961 437 1310 223 280 547 490 895 577 269 67 591 74 865 18 283-58 530-183 749-379 142-127 311-366 400-564 20-45 40-88 44-94 6-9 40-13 113-13l104 0 0 28c0 15-18 236-40 491-27 326-43 467-52 472-7 4-62 26-123 48-422 151-751 225-1170 261-110 9-492 11-610 3zM6070 4831l-485-148 0-62 0-62 235-103 235-102 0-1699c0-1615-1-1703-18-1760-52-171-157-239-399-261l-78-7 0-88 0-89 775 0 775 0 0 89 0 90-47 5c-238 28-312 63-371 174-66 126-65 108-69 1039l-4 841 68 55c284 229 569 338 843 324 174-9 305-61 395-155 94-99 145-227 166-413 6-55 9-364 7-802-4-638-6-718-21-772-42-144-99-216-203-254-46-18-173-40-226-41-5 0-8-40-8-90l0-90 750 0 750 0 0 89 0 89-67 7c-247 25-351 111-388 321-12 72-15 213-15 853 0 787-4 891-40 1016-99 342-334 552-689 615-94 17-307 14-404-5-281-55-556-205-837-457-36-32-68-58-72-58-5 0-8 454-8 1008l0 1009-23 21c-13 12-27 22-33 21-5 0-227-67-494-148zM10745 3449c-262-14-496-70-686-164-239-118-380-272-425-462-37-157 14-386 112-503 25-29 31-31 66-26 99 16 414 154 457 200l24 26-74 146c-72 141-74 148-74 217 0 89 20 133 90 202 133 129 384 191 614 151 218-38 382-170 444-359 18-56 21-94 25-369l4-307-23-11c-13-5-210-66-436-135-457-139-629-199-808-284-240-115-398-248-474-402-140-283-61-642 182-824 237-179 574-216 897-100 168 61 394 197 570 344 47 39 87 71 90 71 3 0 12-37 21-83 44-218 127-330 282-378 56-17 86-20 165-17 174 8 304 76 490 253l115 111-28 92c-17 55-33 91-39 88-6-3-49-21-96-40-140-59-236-46-284 38-50 86-49 66-56 1031-7 1012-3 952-77 1105-52 108-167 221-284 277-187 92-455 130-784 112zm575-1884l0-454-69-60c-191-164-360-245-567-271-282-35-535 132-562 371-25 217 74 365 340 509 40 21 228 104 418 184 190 79 361 151 380 160 19 8 41 15 48 16 9 0 12-97 12-455zM16630 3449c-572-31-1007-267-1104-598-20-69-21-215-1-298 29-125 111-263 155-263 31 0 221 70 328 120 124 59 162 85 162 111 0 11-30 77-67 146-60 114-67 133-71 197-6 96 20 157 96 227 156 143 423 194 677 129 105-27 169-63 245-140 135-136 150-192 150-591l0-296-157-47c-734-223-866-268-1073-360-163-73-267-142-375-251-140-140-195-270-195-459 0-122 21-214 71-316 171-348 666-480 1117-299 153 61 386 207 537 336 42 36 78 64 80 61 2-2 11-39 20-83 53-259 176-381 395-393 108-5 177 9 277 57 102 50 188 114 295 221l87 87-26 84c-14 46-28 87-32 92-4 4-43-9-87-29-138-64-241-58-294 17-56 77-54 50-60 1029-7 1013-3 956-81 1118-140 290-502 423-1069 391zm570-1886l0-458-70-59c-213-180-416-267-630-268-174-2-280 41-388 156-82 88-106 150-106 276 0 124 23 184 103 272 112 122 204 172 696 378 187 78 347 146 355 151 40 23 40 27 40-448zM20670 3452c-337-15-669-175-990-477l-75-70-3 250c-2 239-3 250-24 272-12 13-29 23-37 23-9-1-236-65-506-143l-490-142-3-55-3-56 243-110 243-111 3-854c2-546-1-887-8-946-30-271-120-364-375-393-49-5-98-10-107-10-16 0-18-11-18-90l0-90 800 0 800 0 0 90 0 89-32 5c-18 3-69 7-113 10-200 13-300 86-351 261-16 55-18 133-21 916l-4 857 68 57c301 251 676 371 968 310 211-45 369-206 422-432 17-72 18-138 18-828 0-697-1-756-19-830-24-105-55-163-112-213-56-50-133-80-239-94-139-18-125-5-125-108l0-90 780 0 780 0 0 89 0 89-31 6c-17 3-52 6-78 6-55 0-160 24-201 45-50 26-100 76-125 125-53 105-55 138-55 937 0 774-6 911-40 1049-76 301-286 529-565 612-117 35-249 50-375 44zM23715 3450c-519-29-926-222-1069-507-59-117-72-259-37-395 32-126 110-258 151-258 57 0 407 145 465 192 32 27 33 30 23 61-6 17-33 71-60 119-62 110-78 157-78 225 0 109 68 201 202 276 105 59 198 80 358 80 153 1 247-19 352-75 70-37 167-138 205-211 49-97 53-129 53-459 0-170-2-308-4-308-20 0-883-270-991-310-386-144-579-268-701-451-73-110-97-198-98-349-1-142 11-203 60-305 86-180 257-313 479-371 109-29 371-27 484 3 223 60 492 211 701 392 31 27 63 51 70 53 8 2 18-28 31-87 38-183 125-309 248-356 84-33 229-38 318-10 135 40 267 128 406 269l78 79-27 92c-16 53-32 90-38 87-170-78-258-94-326-57-48 25-87 105-100 201-5 42-10 434-10 895 0 509-4 844-10 883-13 77-32 136-73 222-40 82-157 203-242 249-132 71-300 115-476 126-190 11-217 12-344 5zm565-1889l0-459-77-64c-195-162-346-232-550-258-388-50-678 281-530 603 46 100 173 210 337 292 58 30 800 344 813 345 4 0 7-207 7-459zM13140 3305c-267-79-495-147-508-150-21-5-23-11-20-58l3-52 263-110 262-109-2-941-3-940-23-64c-60-166-162-228-409-246l-93-7 0-89 0-89 895 0 895 0 0 89 0 88-158 7c-255 11-347 39-428 129-94 104-103 200-104 996l0 574 56 106c203 383 386 543 568 496 75-20 114-46 237-160 57-54 121-110 142-125 81-60 170-45 232 40 76 104 142 294 131 379-13 100-126 220-279 295-115 57-176 70-292 63-106-6-180-30-275-92-145-93-328-322-481-602-18-35-37-63-41-63-5 0-8 164-8 365 0 320-2 369-16 390-10 15-25 25-38 24-11 0-239-65-506-144z" fill="#a7441c" class="color000 svgShape"/></g></svg></g></svg>