<svg xmlns="http://www.w3.org/2000/svg" class="looka-1j8o68f" viewBox="0 0 125 119.48"><defs><linearGradient id="a"><stop stop-color="#ef4136" offset="0"/><stop stop-color="#fbb040" offset="1"/></linearGradient></defs><g xmlns="http://www.w3.org/2000/svg" transform="translate(-6.27 -8.434)scale(1.37539)" fill="url(#a)"><path d="M86.5 40.5A1.5 1.5 0 0 0 85 42v48H15V42a1.5 1.5 0 1 0-3 0v49.5a1.5 1.5 0 0 0 1.5 1.5h73a1.5 1.5 0 0 0 1.5-1.5V42a1.5 1.5 0 0 0-1.5-1.5"/><path d="M94.822 38.269 50.88 6.418a1.5 1.5 0 0 0-1.761 0L5.178 38.269a1.5 1.5 0 1 0 1.761 2.429L50 9.485l43.061 31.212a1.5 1.5 0 0 0 2.095-.334 1.5 1.5 0 0 0-.334-2.094M70.304 55.836c0-5.988-2.526-12.386-9.615-12.386-4.974 0-7.398 3.092-9.001 5.139-.535.683-1.344 1.714-1.687 1.714s-1.152-1.032-1.687-1.714c-1.604-2.046-4.027-5.139-9.001-5.139-7.089 0-9.615 6.398-9.615 12.386C29.696 67.293 45.189 80.92 50 80.92s20.304-13.627 20.304-25.084"/></g></svg>