<svg xmlns="http://www.w3.org/2000/svg" width="470.04" height="151.781" viewBox="0 0 370 119.477" class="looka-1j8o68f"><defs><linearGradient id="a"><stop stop-color="#ef4136" offset="0"/><stop stop-color="#fbb040" offset="1"/></linearGradient></defs><g xmlns="http://www.w3.org/2000/svg" transform="translate(-6.27 -8.434)scale(1.37539)" fill="url(#a)"><path d="M86.5 40.5A1.5 1.5 0 0 0 85 42v48H15V42a1.5 1.5 0 1 0-3 0v49.5a1.5 1.5 0 0 0 1.5 1.5h73a1.5 1.5 0 0 0 1.5-1.5V42a1.5 1.5 0 0 0-1.5-1.5"/><path d="M94.822 38.269 50.88 6.418a1.5 1.5 0 0 0-1.761 0L5.178 38.269a1.5 1.5 0 1 0 1.761 2.429L50 9.485l43.061 31.212a1.5 1.5 0 0 0 2.095-.334 1.5 1.5 0 0 0-.334-2.094M70.304 55.836c0-5.988-2.526-12.386-9.615-12.386-4.974 0-7.398 3.092-9.001 5.139-.535.683-1.344 1.714-1.687 1.714s-1.152-1.032-1.687-1.714c-1.604-2.046-4.027-5.139-9.001-5.139-7.089 0-9.615 6.398-9.615 12.386C29.696 67.293 45.189 80.92 50 80.92s20.304-13.627 20.304-25.084"/></g><path d="M145 57.42v-8.28h4.95l4.23 4.77c3.78 4.23 8.73 5.04 14.67 5.13 7.11 0 13.77-2.34 13.77-8.28 0-7.29-12.6-14.4-19.8-18.45-6.21-3.51-16.65-8.46-16.65-15.93C146.17 2.52 163.63 0 168.49 0c6.03 0 12.15 1.35 18.63 4.05l.18 8.19h-5.13l-2.97-3.6c-2.88-3.42-7.29-5.4-11.61-5.4-7.65 0-11.88 5.4-11.88 8.46 0 6.39 12.96 10.98 25.56 19.26 7.11 4.68 10.35 10.26 10.35 15.48 0 8.82-8.91 16.83-22.5 16.83-16.47 0-24.12-5.85-24.12-5.85M214.12 63l-13.5-34.74c-.36-.9-.72-1.35-1.26-1.98l-3.96-4.23v-2.52h17.01v2.52l-1.17 2.52c-.81 1.71-.81 3.42-.18 5.13l11.16 28.53 8.82-22.68c2.07-5.13 2.07-10.8 0-16.02h9.9l15.03 38.88 11.61-29.79c.81-2.25.36-4.77-1.44-6.3v-2.79h10.98v2.79l-3.51 2.25c-1.08.72-1.62 1.62-2.07 2.79L257.77 63h-9.9L235.9 32.22 223.84 63zm99.9 0-2.43-.63c-4.05-1.08-8.46-1.08-12.24.09-1.53.45-2.97.54-4.41.54-8.82 0-15.84-6.93-15.84-15.66 0-8.55 7.02-15.57 15.84-15.57 3.51 0 6.66 1.08 9.09 2.79v-.09s.72-10.98-4.14-12.33c-5.04-1.44-6.84 1.53-10.53 7.11l-7.56-.09c2.34-5.94 6.93-10.08 13.41-10.08 2.43 0 4.95.45 7.38 1.17 0 0 11.43 3.51 11.43 14.22zm-27.63-13.41c2.07 6.75 7.2 11.52 12.42 10.35 5.04-1.17 7.38-7.74 5.31-14.76-1.98-6.66-7.83-11.43-12.87-10.17-5.13 1.26-6.93 7.74-4.86 14.58m73.8-25.74v-9.36c0-4.41-1.8-8.64-4.86-11.88V0H370v63.09c-2.88-1.26-5.85-1.89-8.82-1.89-5.22 0-9.63 2.79-15.03 2.79-12.6 0-24.57-10.17-24.57-22.41 0-12.51 9.72-22.68 24.57-22.68 5.31 0 10.08 1.98 14.04 4.95m-10.26 37.8c6.84 0 11.25-6.84 11.25-15.12 0-13.77-10.08-25.02-18.72-25.02-6.84 0-10.62 6.48-10.62 14.4 0 2.7.45 5.67 1.44 8.73 3.06 9.9 9.72 17.01 16.65 17.01m-160.512 56.52-.434-.31c-3.469-2.045-7.557-2.169-11.274-.682-2.788 1.115-5.948 1.797-9.169 1.797-13.01 0-23.54-9.726-23.54-22.488s10.53-22.488 23.54-22.488h2.354c8.054 0 15.24 4.77 18.461 12.08h-9.168c-4.46-6.814-11.461-10.717-17.78-9.23-8.363 1.982-11.337 11.894-7.93 23.045 3.408 11.275 11.895 18.337 20.196 16.355 3.283-.806 5.947-2.974 7.682-5.885v-9.045h-6.257v-3.097h13.319zm4.522 0v-1.673a11.77 11.77 0 0 0 3.284-8.116V84.655c0-2.974-1.177-5.885-3.284-8.054v-1.796h10.036V90.54c2.23-1.61 4.894-2.478 7.434-2.478 7.31 0 14.31 4.398 14.31 15.115v5.204c0 2.974 1.053 5.947 3.16 8.116v1.672h-13.072v-1.672c2.045-2.169 3.16-5.142 3.16-8.054v-4.027c0-5.699-3.903-15.487-11.77-13.69-1.921.433-3.222 2.602-3.222 4.584v13.133c0 2.912 1.053 5.885 3.16 8.054v1.672zm62.507 0-1.673-.434c-2.787-.744-5.823-.744-8.425.062-1.053.31-2.044.371-3.035.371-6.071 0-10.903-4.77-10.903-10.779 0-5.885 4.832-10.717 10.903-10.717 2.416 0 4.584.743 6.257 1.92v-.062s.495-7.557-2.85-8.487c-3.47-.99-4.708 1.053-7.248 4.894l-5.204-.062c1.61-4.088 4.77-6.938 9.23-6.938 1.673 0 3.408.31 5.08.805 0 0 7.868 2.416 7.868 9.788zm-19.018-9.231c1.424 4.646 4.956 7.93 8.549 7.124 3.469-.805 5.08-5.328 3.655-10.16-1.363-4.584-5.39-7.867-8.86-7-3.53.867-4.77 5.328-3.344 10.036m68.825 9.54-1.734-.372c-1.301-.248-2.602-.62-3.965-.557-2.478 0-4.956.929-7.434.929-6.01 0-10.903-5.08-10.903-11.027 0-5.885 4.894-10.717 10.903-10.717 2.354 0 4.46.681 6.38 1.858v-.062c0-2.044.063-8.61-4.46-8.61-2.478 0-3.655 1.734-5.699 4.955h-5.39c1.735-4.088 4.894-6.938 9.293-6.938 5.637 0 13.01 3.531 13.01 10.593zm-44.603-.31v-1.734a11.93 11.93 0 0 0 3.097-7.93V98.098c0-2.912-1.115-5.824-3.097-7.992v-1.858h9.974v3.035c1.486-1.672 5.017-3.345 7.867-3.345 3.283 0 5.947 1.363 5.947 1.363-1.549 1.549-2.602 3.221-3.469 5.204 0 0-2.168-2.169-5.39-2.169-4.336 0-4.955 2.974-4.955 3.78v12.39c0 2.849 1.115 5.76 3.159 7.929v1.734zm33.019-1.672c3.345 0 5.39-3.593 5.39-7.125 0-5.823-4.461-10.593-8.426-10.593-3.16 0-5.018 2.85-5.018 6.443 0 5.761 4.15 11.275 8.054 11.275m16.726 1.672v-1.672c2.044-2.169 3.16-5.142 3.16-8.116V98.098c0-3.036-1.116-5.947-3.16-8.116v-1.734h9.85v3.469c2.106-1.177 4.522-1.92 6.752-1.92 7.248 0 11.213 4.398 11.213 15.115v3.47c0 2.973 1.177 5.946 3.283 8.115v1.672h-13.257v-1.672a11.77 11.77 0 0 0 3.284-8.116v-7.496c0-4.832-4.399-9.602-8.735-8.425-1.549.434-2.54 1.92-2.54 3.531v12.452c0 2.912 1.239 5.885 3.221 8.054v1.672zm58.604 0-1.673-.433c-2.787-.744-5.823-.744-8.425.062-1.053.31-2.044.371-3.035.371-6.071 0-10.903-4.77-10.903-10.779 0-5.885 4.832-10.717 10.903-10.717 2.416 0 4.584.743 6.257 1.92v-.062s.495-7.557-2.85-8.487c-3.47-.99-4.708 1.053-7.248 4.894l-5.204-.062c1.61-4.088 4.77-6.938 9.23-6.938 1.673 0 3.408.31 5.08.805 0 0 7.868 2.416 7.868 9.788zm-19.019-9.23c1.425 4.646 4.956 7.93 8.55 7.124 3.469-.805 5.08-5.328 3.654-10.16-1.362-4.584-5.39-7.867-8.858-7-3.531.867-4.77 5.328-3.346 10.036" fill="#a7441c"/></svg>